<svg width="410" height="107" viewBox="0 0 410 107" fill="none" xmlns="http://www.w3.org/2000/svg">
<path d="M52.314 60.0391H34.6992L31.623 70H17.8901L37.4458 16.6797H49.5308L69.2329 70H55.4268L52.314 60.0391ZM37.7754 50.1147H49.2378L43.4883 31.6211L37.7754 50.1147ZM73.1514 70V16.6797H92.3042C99.1646 16.6797 104.377 17.937 107.941 20.4517C111.53 22.9663 113.325 26.6162 113.325 31.4014C113.325 34.1602 112.69 36.5161 111.42 38.4692C110.151 40.4224 108.283 41.8628 105.817 42.7905C108.601 43.5229 110.737 44.8901 112.226 46.8921C113.715 48.894 114.46 51.3354 114.46 54.2163C114.46 59.4409 112.8 63.3716 109.479 66.0083C106.184 68.6206 101.289 69.9512 94.7944 70H73.1514ZM86.0054 47.3315V60.1123H94.4282C96.7476 60.1123 98.5298 59.5874 99.7749 58.5376C101.02 57.4634 101.643 55.9619 101.643 54.0332C101.643 49.5898 99.4331 47.356 95.0142 47.3315H86.0054ZM86.0054 38.9087H92.707C95.5146 38.8843 97.5166 38.3716 98.7129 37.3706C99.9092 36.3696 100.507 34.8926 100.507 32.9395C100.507 30.6934 99.8604 29.082 98.5664 28.1055C97.2725 27.1045 95.1851 26.604 92.3042 26.604H86.0054V38.9087ZM166.718 44.4385C166.718 49.6387 165.754 54.2407 163.825 58.2446C161.896 62.2485 159.15 65.3369 155.585 67.5098C152.045 69.6582 148.005 70.7324 143.464 70.7324C138.923 70.7324 134.895 69.6948 131.379 67.6196C127.863 65.52 125.117 62.5293 123.139 58.6475C121.186 54.7656 120.161 50.3101 120.063 45.2808V42.2778C120.063 37.0532 121.015 32.4512 122.919 28.4717C124.848 24.4678 127.595 21.3794 131.159 19.2065C134.748 17.0337 138.825 15.9473 143.391 15.9473C147.907 15.9473 151.936 17.0215 155.476 19.1699C159.016 21.3184 161.762 24.3823 163.715 28.3618C165.693 32.3169 166.694 36.8579 166.718 41.9849V44.4385ZM153.645 42.2046C153.645 36.9067 152.753 32.8906 150.971 30.1562C149.213 27.3975 146.687 26.0181 143.391 26.0181C136.945 26.0181 133.54 30.8521 133.173 40.52L133.137 44.4385C133.137 49.6631 134.003 53.6792 135.737 56.4868C137.47 59.2944 140.046 60.6982 143.464 60.6982C146.711 60.6982 149.213 59.3188 150.971 56.5601C152.729 53.8013 153.62 49.834 153.645 44.6582V42.2046ZM215.168 16.6797V51.5796C215.168 55.5347 214.326 58.9648 212.641 61.8701C210.957 64.751 208.54 66.9482 205.39 68.4619C202.241 69.9756 198.518 70.7324 194.221 70.7324C187.727 70.7324 182.612 69.0479 178.876 65.6787C175.141 62.3096 173.237 57.6953 173.164 51.8359V16.6797H186.091V52.0923C186.237 57.9272 188.947 60.8447 194.221 60.8447C196.882 60.8447 198.896 60.1123 200.263 58.6475C201.63 57.1826 202.314 54.8022 202.314 51.5063V16.6797H215.168ZM265.083 26.604H249.079V70H236.225V26.604H220.515V16.6797H265.083V26.604ZM303.901 16.6797L315.803 53.7769L327.668 16.6797H344.587V70H331.696V57.5488L332.941 32.0605L320.051 70H311.555L298.627 32.0239L299.873 57.5488V70H287.019V16.6797H303.901ZM385.859 47.4048H365.644V60.1123H389.521V70H352.79V16.6797H389.594V26.604H365.644V37.8467H385.859V47.4048Z" fill="#FF0100"/>
<path d="M52.314 60.0391H34.6992L31.623 70H17.8901L37.4458 16.6797H49.5308L69.2329 70H55.4268L52.314 60.0391ZM37.7754 50.1147H49.2378L43.4883 31.6211L37.7754 50.1147ZM73.1514 70V16.6797H92.3042C99.1646 16.6797 104.377 17.937 107.941 20.4517C111.53 22.9663 113.325 26.6162 113.325 31.4014C113.325 34.1602 112.69 36.5161 111.42 38.4692C110.151 40.4224 108.283 41.8628 105.817 42.7905C108.601 43.5229 110.737 44.8901 112.226 46.8921C113.715 48.894 114.46 51.3354 114.46 54.2163C114.46 59.4409 112.8 63.3716 109.479 66.0083C106.184 68.6206 101.289 69.9512 94.7944 70H73.1514ZM86.0054 47.3315V60.1123H94.4282C96.7476 60.1123 98.5298 59.5874 99.7749 58.5376C101.02 57.4634 101.643 55.9619 101.643 54.0332C101.643 49.5898 99.4331 47.356 95.0142 47.3315H86.0054ZM86.0054 38.9087H92.707C95.5146 38.8843 97.5166 38.3716 98.7129 37.3706C99.9092 36.3696 100.507 34.8926 100.507 32.9395C100.507 30.6934 99.8604 29.082 98.5664 28.1055C97.2725 27.1045 95.1851 26.604 92.3042 26.604H86.0054V38.9087ZM166.718 44.4385C166.718 49.6387 165.754 54.2407 163.825 58.2446C161.896 62.2485 159.15 65.3369 155.585 67.5098C152.045 69.6582 148.005 70.7324 143.464 70.7324C138.923 70.7324 134.895 69.6948 131.379 67.6196C127.863 65.52 125.117 62.5293 123.139 58.6475C121.186 54.7656 120.161 50.3101 120.063 45.2808V42.2778C120.063 37.0532 121.015 32.4512 122.919 28.4717C124.848 24.4678 127.595 21.3794 131.159 19.2065C134.748 17.0337 138.825 15.9473 143.391 15.9473C147.907 15.9473 151.936 17.0215 155.476 19.1699C159.016 21.3184 161.762 24.3823 163.715 28.3618C165.693 32.3169 166.694 36.8579 166.718 41.9849V44.4385ZM153.645 42.2046C153.645 36.9067 152.753 32.8906 150.971 30.1562C149.213 27.3975 146.687 26.0181 143.391 26.0181C136.945 26.0181 133.54 30.8521 133.173 40.52L133.137 44.4385C133.137 49.6631 134.003 53.6792 135.737 56.4868C137.47 59.2944 140.046 60.6982 143.464 60.6982C146.711 60.6982 149.213 59.3188 150.971 56.5601C152.729 53.8013 153.62 49.834 153.645 44.6582V42.2046ZM215.168 16.6797V51.5796C215.168 55.5347 214.326 58.9648 212.641 61.8701C210.957 64.751 208.54 66.9482 205.39 68.4619C202.241 69.9756 198.518 70.7324 194.221 70.7324C187.727 70.7324 182.612 69.0479 178.876 65.6787C175.141 62.3096 173.237 57.6953 173.164 51.8359V16.6797H186.091V52.0923C186.237 57.9272 188.947 60.8447 194.221 60.8447C196.882 60.8447 198.896 60.1123 200.263 58.6475C201.63 57.1826 202.314 54.8022 202.314 51.5063V16.6797H215.168ZM265.083 26.604H249.079V70H236.225V26.604H220.515V16.6797H265.083V26.604ZM303.901 16.6797L315.803 53.7769L327.668 16.6797H344.587V70H331.696V57.5488L332.941 32.0605L320.051 70H311.555L298.627 32.0239L299.873 57.5488V70H287.019V16.6797H303.901ZM385.859 47.4048H365.644V60.1123H389.521V70H352.79V16.6797H389.594V26.604H365.644V37.8467H385.859V47.4048Z" fill="#FF0100"/>
<path d="M52.314 60.0391H34.6992L31.623 70H17.8901L37.4458 16.6797H49.5308L69.2329 70H55.4268L52.314 60.0391ZM37.7754 50.1147H49.2378L43.4883 31.6211L37.7754 50.1147ZM73.1514 70V16.6797H92.3042C99.1646 16.6797 104.377 17.937 107.941 20.4517C111.53 22.9663 113.325 26.6162 113.325 31.4014C113.325 34.1602 112.69 36.5161 111.42 38.4692C110.151 40.4224 108.283 41.8628 105.817 42.7905C108.601 43.5229 110.737 44.8901 112.226 46.8921C113.715 48.894 114.46 51.3354 114.46 54.2163C114.46 59.4409 112.8 63.3716 109.479 66.0083C106.184 68.6206 101.289 69.9512 94.7944 70H73.1514ZM86.0054 47.3315V60.1123H94.4282C96.7476 60.1123 98.5298 59.5874 99.7749 58.5376C101.02 57.4634 101.643 55.9619 101.643 54.0332C101.643 49.5898 99.4331 47.356 95.0142 47.3315H86.0054ZM86.0054 38.9087H92.707C95.5146 38.8843 97.5166 38.3716 98.7129 37.3706C99.9092 36.3696 100.507 34.8926 100.507 32.9395C100.507 30.6934 99.8604 29.082 98.5664 28.1055C97.2725 27.1045 95.1851 26.604 92.3042 26.604H86.0054V38.9087ZM166.718 44.4385C166.718 49.6387 165.754 54.2407 163.825 58.2446C161.896 62.2485 159.15 65.3369 155.585 67.5098C152.045 69.6582 148.005 70.7324 143.464 70.7324C138.923 70.7324 134.895 69.6948 131.379 67.6196C127.863 65.52 125.117 62.5293 123.139 58.6475C121.186 54.7656 120.161 50.3101 120.063 45.2808V42.2778C120.063 37.0532 121.015 32.4512 122.919 28.4717C124.848 24.4678 127.595 21.3794 131.159 19.2065C134.748 17.0337 138.825 15.9473 143.391 15.9473C147.907 15.9473 151.936 17.0215 155.476 19.1699C159.016 21.3184 161.762 24.3823 163.715 28.3618C165.693 32.3169 166.694 36.8579 166.718 41.9849V44.4385ZM153.645 42.2046C153.645 36.9067 152.753 32.8906 150.971 30.1562C149.213 27.3975 146.687 26.0181 143.391 26.0181C136.945 26.0181 133.54 30.8521 133.173 40.52L133.137 44.4385C133.137 49.6631 134.003 53.6792 135.737 56.4868C137.47 59.2944 140.046 60.6982 143.464 60.6982C146.711 60.6982 149.213 59.3188 150.971 56.5601C152.729 53.8013 153.62 49.834 153.645 44.6582V42.2046ZM215.168 16.6797V51.5796C215.168 55.5347 214.326 58.9648 212.641 61.8701C210.957 64.751 208.54 66.9482 205.39 68.4619C202.241 69.9756 198.518 70.7324 194.221 70.7324C187.727 70.7324 182.612 69.0479 178.876 65.6787C175.141 62.3096 173.237 57.6953 173.164 51.8359V16.6797H186.091V52.0923C186.237 57.9272 188.947 60.8447 194.221 60.8447C196.882 60.8447 198.896 60.1123 200.263 58.6475C201.63 57.1826 202.314 54.8022 202.314 51.5063V16.6797H215.168ZM265.083 26.604H249.079V70H236.225V26.604H220.515V16.6797H265.083V26.604ZM303.901 16.6797L315.803 53.7769L327.668 16.6797H344.587V70H331.696V57.5488L332.941 32.0605L320.051 70H311.555L298.627 32.0239L299.873 57.5488V70H287.019V16.6797H303.901ZM385.859 47.4048H365.644V60.1123H389.521V70H352.79V16.6797H389.594V26.604H365.644V37.8467H385.859V47.4048Z" fill="white"/>
<path d="M0 97.5C0 92.2533 4.2533 88 9.5 88H400.5C405.747 88 410 92.2533 410 97.5V97.5C410 102.747 405.747 107 400.5 107H9.49999C4.25329 107 0 102.747 0 97.5V97.5Z" fill="#F30072"/>
<path d="M0 97.5C0 92.2533 4.2533 88 9.5 88H400.5C405.747 88 410 92.2533 410 97.5V97.5C410 102.747 405.747 107 400.5 107H9.49999C4.25329 107 0 102.747 0 97.5V97.5Z" fill="#F30072"/>
<path d="M0 97.5C0 92.2533 4.2533 88 9.5 88H400.5C405.747 88 410 92.2533 410 97.5V97.5C410 102.747 405.747 107 400.5 107H9.49999C4.25329 107 0 102.747 0 97.5V97.5Z" fill="#F30072"/>
<path d="M0 97.5C0 92.2533 4.2533 88 9.5 88H400.5C405.747 88 410 92.2533 410 97.5V97.5C410 102.747 405.747 107 400.5 107H9.49999C4.25329 107 0 102.747 0 97.5V97.5Z" fill="#F30072"/>
<path d="M0 97.5C0 92.2533 4.2533 88 9.5 88H400.5C405.747 88 410 92.2533 410 97.5V97.5C410 102.747 405.747 107 400.5 107H9.49999C4.25329 107 0 102.747 0 97.5V97.5Z" fill="white"/>
</svg>
