<svg width="567" height="107" viewBox="0 0 567 107" fill="none" xmlns="http://www.w3.org/2000/svg">
<path d="M33.9106 16.6797L45.8125 53.7769L57.6777 16.6797H74.5967V70H61.7061V57.5488L62.9512 32.0605L50.0605 70H41.5645L28.6372 32.0239L29.8823 57.5488V70H17.0283V16.6797H33.9106ZM96.4961 70H83.6787V16.6797H96.4961V70ZM148.571 51.9458C148.4 55.6567 147.399 58.9404 145.568 61.7969C143.737 64.6289 141.162 66.8262 137.841 68.3887C134.545 69.9512 130.773 70.7324 126.525 70.7324C119.519 70.7324 114.001 68.4497 109.973 63.8843C105.944 59.3188 103.93 52.8735 103.93 44.5483V41.9116C103.93 36.687 104.833 32.1216 106.64 28.2153C108.471 24.2847 111.096 21.2573 114.514 19.1333C117.932 16.9849 121.887 15.9106 126.379 15.9106C132.849 15.9106 138.049 17.6196 141.979 21.0376C145.91 24.4312 148.144 29.1187 148.681 35.1001H135.864C135.766 31.853 134.948 29.5215 133.41 28.1055C131.872 26.6895 129.528 25.9814 126.379 25.9814C123.181 25.9814 120.837 27.1777 119.348 29.5703C117.858 31.9629 117.077 35.7837 117.004 41.0327V44.8047C117.004 50.4932 117.712 54.5581 119.128 56.9995C120.568 59.4409 123.034 60.6616 126.525 60.6616C129.479 60.6616 131.738 59.9658 133.3 58.5742C134.863 57.1826 135.693 54.9731 135.791 51.9458H148.571ZM174.462 51.1768H167.504V70H154.65V16.6797H175.634C181.958 16.6797 186.901 18.0835 190.466 20.8911C194.03 23.6987 195.812 27.666 195.812 32.793C195.812 36.5039 195.056 39.5801 193.542 42.0215C192.053 44.4629 189.709 46.4404 186.511 47.9541L197.644 69.4507V70H183.874L174.462 51.1768ZM167.504 41.2524H175.634C178.076 41.2524 179.907 40.6177 181.127 39.3481C182.373 38.0542 182.995 36.2598 182.995 33.9648C182.995 31.6699 182.373 29.8755 181.127 28.5815C179.882 27.2632 178.051 26.604 175.634 26.604H167.504V41.2524ZM248.73 44.4385C248.73 49.6387 247.766 54.2407 245.837 58.2446C243.908 62.2485 241.162 65.3369 237.597 67.5098C234.057 69.6582 230.017 70.7324 225.476 70.7324C220.935 70.7324 216.906 69.6948 213.391 67.6196C209.875 65.52 207.128 62.5293 205.151 58.6475C203.198 54.7656 202.172 50.3101 202.075 45.2808V42.2778C202.075 37.0532 203.027 32.4512 204.931 28.4717C206.86 24.4678 209.606 21.3794 213.171 19.2065C216.76 17.0337 220.837 15.9473 225.402 15.9473C229.919 15.9473 233.947 17.0215 237.487 19.1699C241.027 21.3184 243.774 24.3823 245.727 28.3618C247.705 32.3169 248.706 36.8579 248.73 41.9849V44.4385ZM235.656 42.2046C235.656 36.9067 234.765 32.8906 232.983 30.1562C231.225 27.3975 228.698 26.0181 225.402 26.0181C218.957 26.0181 215.551 30.8521 215.185 40.52L215.148 44.4385C215.148 49.6631 216.015 53.6792 217.749 56.4868C219.482 59.2944 222.058 60.6982 225.476 60.6982C228.723 60.6982 231.225 59.3188 232.983 56.5601C234.741 53.8013 235.632 49.834 235.656 44.6582V42.2046ZM282.861 55.8276C282.861 53.9478 282.189 52.4829 280.847 51.4331C279.528 50.3833 277.197 49.2969 273.852 48.1738C270.507 47.0508 267.773 45.9644 265.649 44.9146C258.74 41.521 255.285 36.8579 255.285 30.9253C255.285 27.9712 256.14 25.3711 257.849 23.125C259.582 20.8545 262.023 19.0967 265.173 17.8516C268.322 16.582 271.862 15.9473 275.793 15.9473C279.626 15.9473 283.056 16.6309 286.083 17.998C289.135 19.3652 291.503 21.3184 293.188 23.8574C294.873 26.3721 295.715 29.2529 295.715 32.5H282.897C282.897 30.3271 282.226 28.6426 280.883 27.4463C279.565 26.25 277.771 25.6519 275.5 25.6519C273.205 25.6519 271.386 26.1646 270.043 27.1899C268.725 28.1909 268.066 29.4727 268.066 31.0352C268.066 32.4023 268.798 33.6475 270.263 34.7705C271.728 35.8691 274.304 37.0166 277.99 38.2129C281.677 39.3848 284.704 40.6543 287.072 42.0215C292.834 45.3418 295.715 49.9194 295.715 55.7544C295.715 60.4175 293.957 64.0796 290.441 66.7407C286.926 69.4019 282.104 70.7324 275.976 70.7324C271.655 70.7324 267.736 69.9634 264.221 68.4253C260.729 66.8628 258.093 64.7388 256.311 62.0532C254.553 59.3433 253.674 56.2305 253.674 52.7148H266.564C266.564 55.5713 267.297 57.6831 268.762 59.0503C270.251 60.3931 272.656 61.0645 275.976 61.0645C278.1 61.0645 279.772 60.6128 280.993 59.7095C282.238 58.7817 282.861 57.4878 282.861 55.8276ZM335.375 47.4048H315.161V60.1123H339.038V70H302.307V16.6797H339.111V26.604H315.161V37.8467H335.375V47.4048ZM364.086 51.1768H357.128V70H344.274V16.6797H365.258C371.582 16.6797 376.525 18.0835 380.09 20.8911C383.654 23.6987 385.437 27.666 385.437 32.793C385.437 36.5039 384.68 39.5801 383.166 42.0215C381.677 44.4629 379.333 46.4404 376.135 47.9541L387.268 69.4507V70H373.498L364.086 51.1768ZM357.128 41.2524H365.258C367.7 41.2524 369.531 40.6177 370.751 39.3481C371.997 38.0542 372.619 36.2598 372.619 33.9648C372.619 31.6699 371.997 29.8755 370.751 28.5815C369.506 27.2632 367.675 26.604 365.258 26.604H357.128V41.2524ZM413.159 55.498L423.779 16.6797H438.134L420.19 70H406.127L388.33 16.6797H402.575L413.159 55.498ZM455.749 70H442.932V16.6797H455.749V70ZM507.824 51.9458C507.653 55.6567 506.652 58.9404 504.821 61.7969C502.99 64.6289 500.415 66.8262 497.094 68.3887C493.798 69.9512 490.026 70.7324 485.778 70.7324C478.771 70.7324 473.254 68.4497 469.226 63.8843C465.197 59.3188 463.183 52.8735 463.183 44.5483V41.9116C463.183 36.687 464.086 32.1216 465.893 28.2153C467.724 24.2847 470.349 21.2573 473.767 19.1333C477.185 16.9849 481.14 15.9106 485.632 15.9106C492.102 15.9106 497.302 17.6196 501.232 21.0376C505.163 24.4312 507.397 29.1187 507.934 35.1001H495.117C495.019 31.853 494.201 29.5215 492.663 28.1055C491.125 26.6895 488.781 25.9814 485.632 25.9814C482.434 25.9814 480.09 27.1777 478.601 29.5703C477.111 31.9629 476.33 35.7837 476.257 41.0327V44.8047C476.257 50.4932 476.965 54.5581 478.381 56.9995C479.821 59.4409 482.287 60.6616 485.778 60.6616C488.732 60.6616 490.991 59.9658 492.553 58.5742C494.116 57.1826 494.946 54.9731 495.043 51.9458H507.824ZM546.972 47.4048H526.757V60.1123H550.634V70H513.903V16.6797H550.708V26.604H526.757V37.8467H546.972V47.4048Z" fill="#FF0100"/>
<path d="M33.9106 16.6797L45.8125 53.7769L57.6777 16.6797H74.5967V70H61.7061V57.5488L62.9512 32.0605L50.0605 70H41.5645L28.6372 32.0239L29.8823 57.5488V70H17.0283V16.6797H33.9106ZM96.4961 70H83.6787V16.6797H96.4961V70ZM148.571 51.9458C148.4 55.6567 147.399 58.9404 145.568 61.7969C143.737 64.6289 141.162 66.8262 137.841 68.3887C134.545 69.9512 130.773 70.7324 126.525 70.7324C119.519 70.7324 114.001 68.4497 109.973 63.8843C105.944 59.3188 103.93 52.8735 103.93 44.5483V41.9116C103.93 36.687 104.833 32.1216 106.64 28.2153C108.471 24.2847 111.096 21.2573 114.514 19.1333C117.932 16.9849 121.887 15.9106 126.379 15.9106C132.849 15.9106 138.049 17.6196 141.979 21.0376C145.91 24.4312 148.144 29.1187 148.681 35.1001H135.864C135.766 31.853 134.948 29.5215 133.41 28.1055C131.872 26.6895 129.528 25.9814 126.379 25.9814C123.181 25.9814 120.837 27.1777 119.348 29.5703C117.858 31.9629 117.077 35.7837 117.004 41.0327V44.8047C117.004 50.4932 117.712 54.5581 119.128 56.9995C120.568 59.4409 123.034 60.6616 126.525 60.6616C129.479 60.6616 131.738 59.9658 133.3 58.5742C134.863 57.1826 135.693 54.9731 135.791 51.9458H148.571ZM174.462 51.1768H167.504V70H154.65V16.6797H175.634C181.958 16.6797 186.901 18.0835 190.466 20.8911C194.03 23.6987 195.812 27.666 195.812 32.793C195.812 36.5039 195.056 39.5801 193.542 42.0215C192.053 44.4629 189.709 46.4404 186.511 47.9541L197.644 69.4507V70H183.874L174.462 51.1768ZM167.504 41.2524H175.634C178.076 41.2524 179.907 40.6177 181.127 39.3481C182.373 38.0542 182.995 36.2598 182.995 33.9648C182.995 31.6699 182.373 29.8755 181.127 28.5815C179.882 27.2632 178.051 26.604 175.634 26.604H167.504V41.2524ZM248.73 44.4385C248.73 49.6387 247.766 54.2407 245.837 58.2446C243.908 62.2485 241.162 65.3369 237.597 67.5098C234.057 69.6582 230.017 70.7324 225.476 70.7324C220.935 70.7324 216.906 69.6948 213.391 67.6196C209.875 65.52 207.128 62.5293 205.151 58.6475C203.198 54.7656 202.172 50.3101 202.075 45.2808V42.2778C202.075 37.0532 203.027 32.4512 204.931 28.4717C206.86 24.4678 209.606 21.3794 213.171 19.2065C216.76 17.0337 220.837 15.9473 225.402 15.9473C229.919 15.9473 233.947 17.0215 237.487 19.1699C241.027 21.3184 243.774 24.3823 245.727 28.3618C247.705 32.3169 248.706 36.8579 248.73 41.9849V44.4385ZM235.656 42.2046C235.656 36.9067 234.765 32.8906 232.983 30.1562C231.225 27.3975 228.698 26.0181 225.402 26.0181C218.957 26.0181 215.551 30.8521 215.185 40.52L215.148 44.4385C215.148 49.6631 216.015 53.6792 217.749 56.4868C219.482 59.2944 222.058 60.6982 225.476 60.6982C228.723 60.6982 231.225 59.3188 232.983 56.5601C234.741 53.8013 235.632 49.834 235.656 44.6582V42.2046ZM282.861 55.8276C282.861 53.9478 282.189 52.4829 280.847 51.4331C279.528 50.3833 277.197 49.2969 273.852 48.1738C270.507 47.0508 267.773 45.9644 265.649 44.9146C258.74 41.521 255.285 36.8579 255.285 30.9253C255.285 27.9712 256.14 25.3711 257.849 23.125C259.582 20.8545 262.023 19.0967 265.173 17.8516C268.322 16.582 271.862 15.9473 275.793 15.9473C279.626 15.9473 283.056 16.6309 286.083 17.998C289.135 19.3652 291.503 21.3184 293.188 23.8574C294.873 26.3721 295.715 29.2529 295.715 32.5H282.897C282.897 30.3271 282.226 28.6426 280.883 27.4463C279.565 26.25 277.771 25.6519 275.5 25.6519C273.205 25.6519 271.386 26.1646 270.043 27.1899C268.725 28.1909 268.066 29.4727 268.066 31.0352C268.066 32.4023 268.798 33.6475 270.263 34.7705C271.728 35.8691 274.304 37.0166 277.99 38.2129C281.677 39.3848 284.704 40.6543 287.072 42.0215C292.834 45.3418 295.715 49.9194 295.715 55.7544C295.715 60.4175 293.957 64.0796 290.441 66.7407C286.926 69.4019 282.104 70.7324 275.976 70.7324C271.655 70.7324 267.736 69.9634 264.221 68.4253C260.729 66.8628 258.093 64.7388 256.311 62.0532C254.553 59.3433 253.674 56.2305 253.674 52.7148H266.564C266.564 55.5713 267.297 57.6831 268.762 59.0503C270.251 60.3931 272.656 61.0645 275.976 61.0645C278.1 61.0645 279.772 60.6128 280.993 59.7095C282.238 58.7817 282.861 57.4878 282.861 55.8276ZM335.375 47.4048H315.161V60.1123H339.038V70H302.307V16.6797H339.111V26.604H315.161V37.8467H335.375V47.4048ZM364.086 51.1768H357.128V70H344.274V16.6797H365.258C371.582 16.6797 376.525 18.0835 380.09 20.8911C383.654 23.6987 385.437 27.666 385.437 32.793C385.437 36.5039 384.68 39.5801 383.166 42.0215C381.677 44.4629 379.333 46.4404 376.135 47.9541L387.268 69.4507V70H373.498L364.086 51.1768ZM357.128 41.2524H365.258C367.7 41.2524 369.531 40.6177 370.751 39.3481C371.997 38.0542 372.619 36.2598 372.619 33.9648C372.619 31.6699 371.997 29.8755 370.751 28.5815C369.506 27.2632 367.675 26.604 365.258 26.604H357.128V41.2524ZM413.159 55.498L423.779 16.6797H438.134L420.19 70H406.127L388.33 16.6797H402.575L413.159 55.498ZM455.749 70H442.932V16.6797H455.749V70ZM507.824 51.9458C507.653 55.6567 506.652 58.9404 504.821 61.7969C502.99 64.6289 500.415 66.8262 497.094 68.3887C493.798 69.9512 490.026 70.7324 485.778 70.7324C478.771 70.7324 473.254 68.4497 469.226 63.8843C465.197 59.3188 463.183 52.8735 463.183 44.5483V41.9116C463.183 36.687 464.086 32.1216 465.893 28.2153C467.724 24.2847 470.349 21.2573 473.767 19.1333C477.185 16.9849 481.14 15.9106 485.632 15.9106C492.102 15.9106 497.302 17.6196 501.232 21.0376C505.163 24.4312 507.397 29.1187 507.934 35.1001H495.117C495.019 31.853 494.201 29.5215 492.663 28.1055C491.125 26.6895 488.781 25.9814 485.632 25.9814C482.434 25.9814 480.09 27.1777 478.601 29.5703C477.111 31.9629 476.33 35.7837 476.257 41.0327V44.8047C476.257 50.4932 476.965 54.5581 478.381 56.9995C479.821 59.4409 482.287 60.6616 485.778 60.6616C488.732 60.6616 490.991 59.9658 492.553 58.5742C494.116 57.1826 494.946 54.9731 495.043 51.9458H507.824ZM546.972 47.4048H526.757V60.1123H550.634V70H513.903V16.6797H550.708V26.604H526.757V37.8467H546.972V47.4048Z" fill="#FF0100"/>
<path d="M33.9106 16.6797L45.8125 53.7769L57.6777 16.6797H74.5967V70H61.7061V57.5488L62.9512 32.0605L50.0605 70H41.5645L28.6372 32.0239L29.8823 57.5488V70H17.0283V16.6797H33.9106ZM96.4961 70H83.6787V16.6797H96.4961V70ZM148.571 51.9458C148.4 55.6567 147.399 58.9404 145.568 61.7969C143.737 64.6289 141.162 66.8262 137.841 68.3887C134.545 69.9512 130.773 70.7324 126.525 70.7324C119.519 70.7324 114.001 68.4497 109.973 63.8843C105.944 59.3188 103.93 52.8735 103.93 44.5483V41.9116C103.93 36.687 104.833 32.1216 106.64 28.2153C108.471 24.2847 111.096 21.2573 114.514 19.1333C117.932 16.9849 121.887 15.9106 126.379 15.9106C132.849 15.9106 138.049 17.6196 141.979 21.0376C145.91 24.4312 148.144 29.1187 148.681 35.1001H135.864C135.766 31.853 134.948 29.5215 133.41 28.1055C131.872 26.6895 129.528 25.9814 126.379 25.9814C123.181 25.9814 120.837 27.1777 119.348 29.5703C117.858 31.9629 117.077 35.7837 117.004 41.0327V44.8047C117.004 50.4932 117.712 54.5581 119.128 56.9995C120.568 59.4409 123.034 60.6616 126.525 60.6616C129.479 60.6616 131.738 59.9658 133.3 58.5742C134.863 57.1826 135.693 54.9731 135.791 51.9458H148.571ZM174.462 51.1768H167.504V70H154.65V16.6797H175.634C181.958 16.6797 186.901 18.0835 190.466 20.8911C194.03 23.6987 195.812 27.666 195.812 32.793C195.812 36.5039 195.056 39.5801 193.542 42.0215C192.053 44.4629 189.709 46.4404 186.511 47.9541L197.644 69.4507V70H183.874L174.462 51.1768ZM167.504 41.2524H175.634C178.076 41.2524 179.907 40.6177 181.127 39.3481C182.373 38.0542 182.995 36.2598 182.995 33.9648C182.995 31.6699 182.373 29.8755 181.127 28.5815C179.882 27.2632 178.051 26.604 175.634 26.604H167.504V41.2524ZM248.73 44.4385C248.73 49.6387 247.766 54.2407 245.837 58.2446C243.908 62.2485 241.162 65.3369 237.597 67.5098C234.057 69.6582 230.017 70.7324 225.476 70.7324C220.935 70.7324 216.906 69.6948 213.391 67.6196C209.875 65.52 207.128 62.5293 205.151 58.6475C203.198 54.7656 202.172 50.3101 202.075 45.2808V42.2778C202.075 37.0532 203.027 32.4512 204.931 28.4717C206.86 24.4678 209.606 21.3794 213.171 19.2065C216.76 17.0337 220.837 15.9473 225.402 15.9473C229.919 15.9473 233.947 17.0215 237.487 19.1699C241.027 21.3184 243.774 24.3823 245.727 28.3618C247.705 32.3169 248.706 36.8579 248.73 41.9849V44.4385ZM235.656 42.2046C235.656 36.9067 234.765 32.8906 232.983 30.1562C231.225 27.3975 228.698 26.0181 225.402 26.0181C218.957 26.0181 215.551 30.8521 215.185 40.52L215.148 44.4385C215.148 49.6631 216.015 53.6792 217.749 56.4868C219.482 59.2944 222.058 60.6982 225.476 60.6982C228.723 60.6982 231.225 59.3188 232.983 56.5601C234.741 53.8013 235.632 49.834 235.656 44.6582V42.2046ZM282.861 55.8276C282.861 53.9478 282.189 52.4829 280.847 51.4331C279.528 50.3833 277.197 49.2969 273.852 48.1738C270.507 47.0508 267.773 45.9644 265.649 44.9146C258.74 41.521 255.285 36.8579 255.285 30.9253C255.285 27.9712 256.14 25.3711 257.849 23.125C259.582 20.8545 262.023 19.0967 265.173 17.8516C268.322 16.582 271.862 15.9473 275.793 15.9473C279.626 15.9473 283.056 16.6309 286.083 17.998C289.135 19.3652 291.503 21.3184 293.188 23.8574C294.873 26.3721 295.715 29.2529 295.715 32.5H282.897C282.897 30.3271 282.226 28.6426 280.883 27.4463C279.565 26.25 277.771 25.6519 275.5 25.6519C273.205 25.6519 271.386 26.1646 270.043 27.1899C268.725 28.1909 268.066 29.4727 268.066 31.0352C268.066 32.4023 268.798 33.6475 270.263 34.7705C271.728 35.8691 274.304 37.0166 277.99 38.2129C281.677 39.3848 284.704 40.6543 287.072 42.0215C292.834 45.3418 295.715 49.9194 295.715 55.7544C295.715 60.4175 293.957 64.0796 290.441 66.7407C286.926 69.4019 282.104 70.7324 275.976 70.7324C271.655 70.7324 267.736 69.9634 264.221 68.4253C260.729 66.8628 258.093 64.7388 256.311 62.0532C254.553 59.3433 253.674 56.2305 253.674 52.7148H266.564C266.564 55.5713 267.297 57.6831 268.762 59.0503C270.251 60.3931 272.656 61.0645 275.976 61.0645C278.1 61.0645 279.772 60.6128 280.993 59.7095C282.238 58.7817 282.861 57.4878 282.861 55.8276ZM335.375 47.4048H315.161V60.1123H339.038V70H302.307V16.6797H339.111V26.604H315.161V37.8467H335.375V47.4048ZM364.086 51.1768H357.128V70H344.274V16.6797H365.258C371.582 16.6797 376.525 18.0835 380.09 20.8911C383.654 23.6987 385.437 27.666 385.437 32.793C385.437 36.5039 384.68 39.5801 383.166 42.0215C381.677 44.4629 379.333 46.4404 376.135 47.9541L387.268 69.4507V70H373.498L364.086 51.1768ZM357.128 41.2524H365.258C367.7 41.2524 369.531 40.6177 370.751 39.3481C371.997 38.0542 372.619 36.2598 372.619 33.9648C372.619 31.6699 371.997 29.8755 370.751 28.5815C369.506 27.2632 367.675 26.604 365.258 26.604H357.128V41.2524ZM413.159 55.498L423.779 16.6797H438.134L420.19 70H406.127L388.33 16.6797H402.575L413.159 55.498ZM455.749 70H442.932V16.6797H455.749V70ZM507.824 51.9458C507.653 55.6567 506.652 58.9404 504.821 61.7969C502.99 64.6289 500.415 66.8262 497.094 68.3887C493.798 69.9512 490.026 70.7324 485.778 70.7324C478.771 70.7324 473.254 68.4497 469.226 63.8843C465.197 59.3188 463.183 52.8735 463.183 44.5483V41.9116C463.183 36.687 464.086 32.1216 465.893 28.2153C467.724 24.2847 470.349 21.2573 473.767 19.1333C477.185 16.9849 481.14 15.9106 485.632 15.9106C492.102 15.9106 497.302 17.6196 501.232 21.0376C505.163 24.4312 507.397 29.1187 507.934 35.1001H495.117C495.019 31.853 494.201 29.5215 492.663 28.1055C491.125 26.6895 488.781 25.9814 485.632 25.9814C482.434 25.9814 480.09 27.1777 478.601 29.5703C477.111 31.9629 476.33 35.7837 476.257 41.0327V44.8047C476.257 50.4932 476.965 54.5581 478.381 56.9995C479.821 59.4409 482.287 60.6616 485.778 60.6616C488.732 60.6616 490.991 59.9658 492.553 58.5742C494.116 57.1826 494.946 54.9731 495.043 51.9458H507.824ZM546.972 47.4048H526.757V60.1123H550.634V70H513.903V16.6797H550.708V26.604H526.757V37.8467H546.972V47.4048Z" fill="#FFD600"/>
<path d="M0 97.5C0 92.2533 4.2533 88 9.5 88H557.5C562.747 88 567 92.2533 567 97.5V97.5C567 102.747 562.747 107 557.5 107H9.50001C4.2533 107 0 102.747 0 97.5V97.5Z" fill="#F30072"/>
<path d="M0 97.5C0 92.2533 4.2533 88 9.5 88H557.5C562.747 88 567 92.2533 567 97.5V97.5C567 102.747 562.747 107 557.5 107H9.50001C4.2533 107 0 102.747 0 97.5V97.5Z" fill="#F30072"/>
<path d="M0 97.5C0 92.2533 4.2533 88 9.5 88H557.5C562.747 88 567 92.2533 567 97.5V97.5C567 102.747 562.747 107 557.5 107H9.50001C4.2533 107 0 102.747 0 97.5V97.5Z" fill="#F30072"/>
<path d="M0 97.5C0 92.2533 4.2533 88 9.5 88H557.5C562.747 88 567 92.2533 567 97.5V97.5C567 102.747 562.747 107 557.5 107H9.50001C4.2533 107 0 102.747 0 97.5V97.5Z" fill="#F30072"/>
<path d="M0 97.5C0 92.2533 4.2533 88 9.5 88H557.5C562.747 88 567 92.2533 567 97.5V97.5C567 102.747 562.747 107 557.5 107H9.50001C4.2533 107 0 102.747 0 97.5V97.5Z" fill="#FFD600"/>
</svg>
