<svg width="288" height="107" viewBox="0 0 288 107" fill="none" xmlns="http://www.w3.org/2000/svg">
<path d="M28.9106 16.6797L40.8125 53.7769L52.6777 16.6797H69.5967V70H56.7061V57.5488L57.9512 32.0605L45.0605 70H36.5645L23.6372 32.0239L24.8823 57.5488V70H12.0283V16.6797H28.9106ZM122.954 44.4385C122.954 49.6387 121.989 54.2407 120.061 58.2446C118.132 62.2485 115.385 65.3369 111.821 67.5098C108.281 69.6582 104.24 70.7324 99.6992 70.7324C95.1582 70.7324 91.1299 69.6948 87.6143 67.6196C84.0986 65.52 81.3521 62.5293 79.3745 58.6475C77.4214 54.7656 76.396 50.3101 76.2983 45.2808V42.2778C76.2983 37.0532 77.2505 32.4512 79.1548 28.4717C81.0835 24.4678 83.8301 21.3794 87.3945 19.2065C90.9834 17.0337 95.0605 15.9473 99.626 15.9473C104.143 15.9473 108.171 17.0215 111.711 19.1699C115.251 21.3184 117.998 24.3823 119.951 28.3618C121.928 32.3169 122.929 36.8579 122.954 41.9849V44.4385ZM109.88 42.2046C109.88 36.9067 108.989 32.8906 107.207 30.1562C105.449 27.3975 102.922 26.0181 99.626 26.0181C93.1807 26.0181 89.7749 30.8521 89.4087 40.52L89.3721 44.4385C89.3721 49.6631 90.2388 53.6792 91.9722 56.4868C93.7056 59.2944 96.2812 60.6982 99.6992 60.6982C102.946 60.6982 105.449 59.3188 107.207 56.5601C108.964 53.8013 109.855 49.834 109.88 44.6582V42.2046ZM129.582 70V16.6797H148.735C155.595 16.6797 160.808 17.937 164.372 20.4517C167.961 22.9663 169.755 26.6162 169.755 31.4014C169.755 34.1602 169.121 36.5161 167.851 38.4692C166.582 40.4224 164.714 41.8628 162.248 42.7905C165.031 43.5229 167.167 44.8901 168.657 46.8921C170.146 48.894 170.891 51.3354 170.891 54.2163C170.891 59.4409 169.23 63.3716 165.91 66.0083C162.614 68.6206 157.719 69.9512 151.225 70H129.582ZM142.436 47.3315V60.1123H150.859C153.178 60.1123 154.96 59.5874 156.206 58.5376C157.451 57.4634 158.073 55.9619 158.073 54.0332C158.073 49.5898 155.864 47.356 151.445 47.3315H142.436ZM142.436 38.9087H149.138C151.945 38.8843 153.947 38.3716 155.144 37.3706C156.34 36.3696 156.938 34.8926 156.938 32.9395C156.938 30.6934 156.291 29.082 154.997 28.1055C153.703 27.1045 151.616 26.604 148.735 26.604H142.436V38.9087ZM191.691 70H178.874V16.6797H191.691V70ZM213.481 60.1123H235.856V70H200.627V16.6797H213.481V60.1123ZM274.345 47.4048H254.13V60.1123H278.007V70H241.276V16.6797H278.081V26.604H254.13V37.8467H274.345V47.4048Z" fill="#FF0100"/>
<path d="M28.9106 16.6797L40.8125 53.7769L52.6777 16.6797H69.5967V70H56.7061V57.5488L57.9512 32.0605L45.0605 70H36.5645L23.6372 32.0239L24.8823 57.5488V70H12.0283V16.6797H28.9106ZM122.954 44.4385C122.954 49.6387 121.989 54.2407 120.061 58.2446C118.132 62.2485 115.385 65.3369 111.821 67.5098C108.281 69.6582 104.24 70.7324 99.6992 70.7324C95.1582 70.7324 91.1299 69.6948 87.6143 67.6196C84.0986 65.52 81.3521 62.5293 79.3745 58.6475C77.4214 54.7656 76.396 50.3101 76.2983 45.2808V42.2778C76.2983 37.0532 77.2505 32.4512 79.1548 28.4717C81.0835 24.4678 83.8301 21.3794 87.3945 19.2065C90.9834 17.0337 95.0605 15.9473 99.626 15.9473C104.143 15.9473 108.171 17.0215 111.711 19.1699C115.251 21.3184 117.998 24.3823 119.951 28.3618C121.928 32.3169 122.929 36.8579 122.954 41.9849V44.4385ZM109.88 42.2046C109.88 36.9067 108.989 32.8906 107.207 30.1562C105.449 27.3975 102.922 26.0181 99.626 26.0181C93.1807 26.0181 89.7749 30.8521 89.4087 40.52L89.3721 44.4385C89.3721 49.6631 90.2388 53.6792 91.9722 56.4868C93.7056 59.2944 96.2812 60.6982 99.6992 60.6982C102.946 60.6982 105.449 59.3188 107.207 56.5601C108.964 53.8013 109.855 49.834 109.88 44.6582V42.2046ZM129.582 70V16.6797H148.735C155.595 16.6797 160.808 17.937 164.372 20.4517C167.961 22.9663 169.755 26.6162 169.755 31.4014C169.755 34.1602 169.121 36.5161 167.851 38.4692C166.582 40.4224 164.714 41.8628 162.248 42.7905C165.031 43.5229 167.167 44.8901 168.657 46.8921C170.146 48.894 170.891 51.3354 170.891 54.2163C170.891 59.4409 169.23 63.3716 165.91 66.0083C162.614 68.6206 157.719 69.9512 151.225 70H129.582ZM142.436 47.3315V60.1123H150.859C153.178 60.1123 154.96 59.5874 156.206 58.5376C157.451 57.4634 158.073 55.9619 158.073 54.0332C158.073 49.5898 155.864 47.356 151.445 47.3315H142.436ZM142.436 38.9087H149.138C151.945 38.8843 153.947 38.3716 155.144 37.3706C156.34 36.3696 156.938 34.8926 156.938 32.9395C156.938 30.6934 156.291 29.082 154.997 28.1055C153.703 27.1045 151.616 26.604 148.735 26.604H142.436V38.9087ZM191.691 70H178.874V16.6797H191.691V70ZM213.481 60.1123H235.856V70H200.627V16.6797H213.481V60.1123ZM274.345 47.4048H254.13V60.1123H278.007V70H241.276V16.6797H278.081V26.604H254.13V37.8467H274.345V47.4048Z" fill="#FF0100"/>
<path d="M28.9106 16.6797L40.8125 53.7769L52.6777 16.6797H69.5967V70H56.7061V57.5488L57.9512 32.0605L45.0605 70H36.5645L23.6372 32.0239L24.8823 57.5488V70H12.0283V16.6797H28.9106ZM122.954 44.4385C122.954 49.6387 121.989 54.2407 120.061 58.2446C118.132 62.2485 115.385 65.3369 111.821 67.5098C108.281 69.6582 104.24 70.7324 99.6992 70.7324C95.1582 70.7324 91.1299 69.6948 87.6143 67.6196C84.0986 65.52 81.3521 62.5293 79.3745 58.6475C77.4214 54.7656 76.396 50.3101 76.2983 45.2808V42.2778C76.2983 37.0532 77.2505 32.4512 79.1548 28.4717C81.0835 24.4678 83.8301 21.3794 87.3945 19.2065C90.9834 17.0337 95.0605 15.9473 99.626 15.9473C104.143 15.9473 108.171 17.0215 111.711 19.1699C115.251 21.3184 117.998 24.3823 119.951 28.3618C121.928 32.3169 122.929 36.8579 122.954 41.9849V44.4385ZM109.88 42.2046C109.88 36.9067 108.989 32.8906 107.207 30.1562C105.449 27.3975 102.922 26.0181 99.626 26.0181C93.1807 26.0181 89.7749 30.8521 89.4087 40.52L89.3721 44.4385C89.3721 49.6631 90.2388 53.6792 91.9722 56.4868C93.7056 59.2944 96.2812 60.6982 99.6992 60.6982C102.946 60.6982 105.449 59.3188 107.207 56.5601C108.964 53.8013 109.855 49.834 109.88 44.6582V42.2046ZM129.582 70V16.6797H148.735C155.595 16.6797 160.808 17.937 164.372 20.4517C167.961 22.9663 169.755 26.6162 169.755 31.4014C169.755 34.1602 169.121 36.5161 167.851 38.4692C166.582 40.4224 164.714 41.8628 162.248 42.7905C165.031 43.5229 167.167 44.8901 168.657 46.8921C170.146 48.894 170.891 51.3354 170.891 54.2163C170.891 59.4409 169.23 63.3716 165.91 66.0083C162.614 68.6206 157.719 69.9512 151.225 70H129.582ZM142.436 47.3315V60.1123H150.859C153.178 60.1123 154.96 59.5874 156.206 58.5376C157.451 57.4634 158.073 55.9619 158.073 54.0332C158.073 49.5898 155.864 47.356 151.445 47.3315H142.436ZM142.436 38.9087H149.138C151.945 38.8843 153.947 38.3716 155.144 37.3706C156.34 36.3696 156.938 34.8926 156.938 32.9395C156.938 30.6934 156.291 29.082 154.997 28.1055C153.703 27.1045 151.616 26.604 148.735 26.604H142.436V38.9087ZM191.691 70H178.874V16.6797H191.691V70ZM213.481 60.1123H235.856V70H200.627V16.6797H213.481V60.1123ZM274.345 47.4048H254.13V60.1123H278.007V70H241.276V16.6797H278.081V26.604H254.13V37.8467H274.345V47.4048Z" fill="#FF6400"/>
<path d="M0 97.5C0 92.2533 4.2533 88 9.5 88H278.5C283.747 88 288 92.2533 288 97.5V97.5C288 102.747 283.747 107 278.5 107H9.5C4.25329 107 0 102.747 0 97.5V97.5Z" fill="#F30072"/>
<path d="M0 97.5C0 92.2533 4.2533 88 9.5 88H278.5C283.747 88 288 92.2533 288 97.5V97.5C288 102.747 283.747 107 278.5 107H9.5C4.25329 107 0 102.747 0 97.5V97.5Z" fill="#F30072"/>
<path d="M0 97.5C0 92.2533 4.2533 88 9.5 88H278.5C283.747 88 288 92.2533 288 97.5V97.5C288 102.747 283.747 107 278.5 107H9.5C4.25329 107 0 102.747 0 97.5V97.5Z" fill="#F30072"/>
<path d="M0 97.5C0 92.2533 4.2533 88 9.5 88H278.5C283.747 88 288 92.2533 288 97.5V97.5C288 102.747 283.747 107 278.5 107H9.5C4.25329 107 0 102.747 0 97.5V97.5Z" fill="#F30072"/>
<path d="M0 97.5C0 92.2533 4.2533 88 9.5 88H278.5C283.747 88 288 92.2533 288 97.5V97.5C288 102.747 283.747 107 278.5 107H9.5C4.25329 107 0 102.747 0 97.5V97.5Z" fill="#FF6400"/>
</svg>
