<svg width="309" height="107" viewBox="0 0 309 107" fill="none" xmlns="http://www.w3.org/2000/svg">
<path d="M49.5308 55.8276C49.5308 53.9478 48.8594 52.4829 47.5166 51.4331C46.1982 50.3833 43.8667 49.2969 40.522 48.1738C37.1772 47.0508 34.4429 45.9644 32.3188 44.9146C25.4097 41.521 21.9551 36.8579 21.9551 30.9253C21.9551 27.9712 22.8096 25.3711 24.5186 23.125C26.252 20.8545 28.6934 19.0967 31.8428 17.8516C34.9922 16.582 38.5322 15.9473 42.4629 15.9473C46.2959 15.9473 49.7261 16.6309 52.7534 17.998C55.8052 19.3652 58.1733 21.3184 59.8579 23.8574C61.5425 26.3721 62.3848 29.2529 62.3848 32.5H49.5674C49.5674 30.3271 48.896 28.6426 47.5532 27.4463C46.2349 26.25 44.4404 25.6519 42.1699 25.6519C39.875 25.6519 38.0562 26.1646 36.7134 27.1899C35.395 28.1909 34.7358 29.4727 34.7358 31.0352C34.7358 32.4023 35.4683 33.6475 36.9331 34.7705C38.3979 35.8691 40.9736 37.0166 44.6602 38.2129C48.3467 39.3848 51.374 40.6543 53.7422 42.0215C59.5039 45.3418 62.3848 49.9194 62.3848 55.7544C62.3848 60.4175 60.627 64.0796 57.1113 66.7407C53.5957 69.4019 48.7739 70.7324 42.646 70.7324C38.3247 70.7324 34.4062 69.9634 30.8906 68.4253C27.3994 66.8628 24.7627 64.7388 22.9805 62.0532C21.2227 59.3433 20.3438 56.2305 20.3438 52.7148H33.2344C33.2344 55.5713 33.9668 57.6831 35.4316 59.0503C36.9209 60.3931 39.3257 61.0645 42.646 61.0645C44.77 61.0645 46.4424 60.6128 47.6631 59.7095C48.9082 58.7817 49.5308 57.4878 49.5308 55.8276ZM102.045 47.4048H81.8306V60.1123H105.708V70H68.9766V16.6797H105.781V26.604H81.8306V37.8467H102.045V47.4048ZM130.756 51.1768H123.798V70H110.944V16.6797H131.928C138.251 16.6797 143.195 18.0835 146.76 20.8911C150.324 23.6987 152.106 27.666 152.106 32.793C152.106 36.5039 151.35 39.5801 149.836 42.0215C148.347 44.4629 146.003 46.4404 142.805 47.9541L153.938 69.4507V70H140.168L130.756 51.1768ZM123.798 41.2524H131.928C134.37 41.2524 136.201 40.6177 137.421 39.3481C138.667 38.0542 139.289 36.2598 139.289 33.9648C139.289 31.6699 138.667 29.8755 137.421 28.5815C136.176 27.2632 134.345 26.604 131.928 26.604H123.798V41.2524ZM179.829 55.498L190.449 16.6797H204.804L186.86 70H172.797L155 16.6797H169.245L179.829 55.498ZM241.792 47.4048H221.577V60.1123H245.454V70H208.723V16.6797H245.527V26.604H221.577V37.8467H241.792V47.4048ZM270.502 51.1768H263.544V70H250.69V16.6797H271.674C277.998 16.6797 282.941 18.0835 286.506 20.8911C290.07 23.6987 291.853 27.666 291.853 32.793C291.853 36.5039 291.096 39.5801 289.582 42.0215C288.093 44.4629 285.749 46.4404 282.551 47.9541L293.684 69.4507V70H279.914L270.502 51.1768ZM263.544 41.2524H271.674C274.116 41.2524 275.947 40.6177 277.167 39.3481C278.413 38.0542 279.035 36.2598 279.035 33.9648C279.035 31.6699 278.413 29.8755 277.167 28.5815C275.922 27.2632 274.091 26.604 271.674 26.604H263.544V41.2524Z" fill="#F30072"/>
<path d="M0 97.5C0 92.2533 4.25329 88 9.5 88H299.5C304.747 88 309 92.2533 309 97.5V97.5C309 102.747 304.747 107 299.5 107H9.49999C4.25329 107 0 102.747 0 97.5V97.5Z" fill="#F30072"/>
<path d="M0 97.5C0 92.2533 4.25329 88 9.5 88H299.5C304.747 88 309 92.2533 309 97.5V97.5C309 102.747 304.747 107 299.5 107H9.49999C4.25329 107 0 102.747 0 97.5V97.5Z" fill="#F30072"/>
<path d="M0 97.5C0 92.2533 4.25329 88 9.5 88H299.5C304.747 88 309 92.2533 309 97.5V97.5C309 102.747 304.747 107 299.5 107H9.49999C4.25329 107 0 102.747 0 97.5V97.5Z" fill="#F30072"/>
<path d="M0 97.5C0 92.2533 4.25329 88 9.5 88H299.5C304.747 88 309 92.2533 309 97.5V97.5C309 102.747 304.747 107 299.5 107H9.49999C4.25329 107 0 102.747 0 97.5V97.5Z" fill="#F30072"/>
<path d="M0 97.5C0 92.2533 4.25329 88 9.5 88H299.5C304.747 88 309 92.2533 309 97.5V97.5C309 102.747 304.747 107 299.5 107H9.49999C4.25329 107 0 102.747 0 97.5V97.5Z" fill="#F30072"/>
</svg>
