<svg width="169" height="107" viewBox="0 0 169 107" fill="none" xmlns="http://www.w3.org/2000/svg">
<path d="M52.3369 50.1147L58.4526 16.6797H71.1968L59.8809 70H46.5508L39.4097 39.6045L32.415 70H19.1216L7.76904 16.6797H20.5498L26.6655 50.1147L33.9897 16.6797H44.9028L52.3369 50.1147ZM109.283 47.4048H89.0679V60.1123H112.945V70H76.2139V16.6797H113.018V26.604H89.0679V37.8467H109.283V47.4048ZM118.182 70V16.6797H137.334C144.195 16.6797 149.407 17.937 152.972 20.4517C156.561 22.9663 158.355 26.6162 158.355 31.4014C158.355 34.1602 157.72 36.5161 156.451 38.4692C155.181 40.4224 153.313 41.8628 150.848 42.7905C153.631 43.5229 155.767 44.8901 157.256 46.8921C158.746 48.894 159.49 51.3354 159.49 54.2163C159.49 59.4409 157.83 63.3716 154.51 66.0083C151.214 68.6206 146.319 69.9512 139.825 70H118.182ZM131.036 47.3315V60.1123H139.458C141.778 60.1123 143.56 59.5874 144.805 58.5376C146.05 57.4634 146.673 55.9619 146.673 54.0332C146.673 49.5898 144.463 47.356 140.044 47.3315H131.036ZM131.036 38.9087H137.737C140.545 38.8843 142.547 38.3716 143.743 37.3706C144.939 36.3696 145.538 34.8926 145.538 32.9395C145.538 30.6934 144.891 29.082 143.597 28.1055C142.303 27.1045 140.215 26.604 137.334 26.604H131.036V38.9087Z" fill="#FF0100"/>
<path d="M52.3369 50.1147L58.4526 16.6797H71.1968L59.8809 70H46.5508L39.4097 39.6045L32.415 70H19.1216L7.76904 16.6797H20.5498L26.6655 50.1147L33.9897 16.6797H44.9028L52.3369 50.1147ZM109.283 47.4048H89.0679V60.1123H112.945V70H76.2139V16.6797H113.018V26.604H89.0679V37.8467H109.283V47.4048ZM118.182 70V16.6797H137.334C144.195 16.6797 149.407 17.937 152.972 20.4517C156.561 22.9663 158.355 26.6162 158.355 31.4014C158.355 34.1602 157.72 36.5161 156.451 38.4692C155.181 40.4224 153.313 41.8628 150.848 42.7905C153.631 43.5229 155.767 44.8901 157.256 46.8921C158.746 48.894 159.49 51.3354 159.49 54.2163C159.49 59.4409 157.83 63.3716 154.51 66.0083C151.214 68.6206 146.319 69.9512 139.825 70H118.182ZM131.036 47.3315V60.1123H139.458C141.778 60.1123 143.56 59.5874 144.805 58.5376C146.05 57.4634 146.673 55.9619 146.673 54.0332C146.673 49.5898 144.463 47.356 140.044 47.3315H131.036ZM131.036 38.9087H137.737C140.545 38.8843 142.547 38.3716 143.743 37.3706C144.939 36.3696 145.538 34.8926 145.538 32.9395C145.538 30.6934 144.891 29.082 143.597 28.1055C142.303 27.1045 140.215 26.604 137.334 26.604H131.036V38.9087Z" fill="#FF0100"/>
<path d="M52.3369 50.1147L58.4526 16.6797H71.1968L59.8809 70H46.5508L39.4097 39.6045L32.415 70H19.1216L7.76904 16.6797H20.5498L26.6655 50.1147L33.9897 16.6797H44.9028L52.3369 50.1147ZM109.283 47.4048H89.0679V60.1123H112.945V70H76.2139V16.6797H113.018V26.604H89.0679V37.8467H109.283V47.4048ZM118.182 70V16.6797H137.334C144.195 16.6797 149.407 17.937 152.972 20.4517C156.561 22.9663 158.355 26.6162 158.355 31.4014C158.355 34.1602 157.72 36.5161 156.451 38.4692C155.181 40.4224 153.313 41.8628 150.848 42.7905C153.631 43.5229 155.767 44.8901 157.256 46.8921C158.746 48.894 159.49 51.3354 159.49 54.2163C159.49 59.4409 157.83 63.3716 154.51 66.0083C151.214 68.6206 146.319 69.9512 139.825 70H118.182ZM131.036 47.3315V60.1123H139.458C141.778 60.1123 143.56 59.5874 144.805 58.5376C146.05 57.4634 146.673 55.9619 146.673 54.0332C146.673 49.5898 144.463 47.356 140.044 47.3315H131.036ZM131.036 38.9087H137.737C140.545 38.8843 142.547 38.3716 143.743 37.3706C144.939 36.3696 145.538 34.8926 145.538 32.9395C145.538 30.6934 144.891 29.082 143.597 28.1055C142.303 27.1045 140.215 26.604 137.334 26.604H131.036V38.9087Z" fill="#FF0100"/>
<path d="M0 97.5C0 92.2533 4.2533 88 9.5 88H159.5C164.747 88 169 92.2533 169 97.5V97.5C169 102.747 164.747 107 159.5 107H9.5C4.2533 107 0 102.747 0 97.5V97.5Z" fill="#F30072"/>
<path d="M0 97.5C0 92.2533 4.2533 88 9.5 88H159.5C164.747 88 169 92.2533 169 97.5V97.5C169 102.747 164.747 107 159.5 107H9.5C4.2533 107 0 102.747 0 97.5V97.5Z" fill="#F30072"/>
<path d="M0 97.5C0 92.2533 4.2533 88 9.5 88H159.5C164.747 88 169 92.2533 169 97.5V97.5C169 102.747 164.747 107 159.5 107H9.5C4.2533 107 0 102.747 0 97.5V97.5Z" fill="#F30072"/>
<path d="M0 97.5C0 92.2533 4.2533 88 9.5 88H159.5C164.747 88 169 92.2533 169 97.5V97.5C169 102.747 164.747 107 159.5 107H9.5C4.2533 107 0 102.747 0 97.5V97.5Z" fill="#F30072"/>
<path d="M0 97.5C0 92.2533 4.2533 88 9.5 88H159.5C164.747 88 169 92.2533 169 97.5V97.5C169 102.747 164.747 107 159.5 107H9.5C4.2533 107 0 102.747 0 97.5V97.5Z" fill="#FF0100"/>
</svg>
